<!-- sample rectangle -->
<svg width="180" height="60" xmlns="http://www.w3.org/2000/svg">
                        
                        <svg class="header-logo header-logo_pc" viewBox="0 0 156 48">
                            <path fill="#0B4396" d="M23.97 30.78A36.23 36.23 0 0 0 44.2 3.31H3.8a35.95 35.95 0 0 0 20.16 27.47ZM10.25 44.61h11.52A59.62 59.62 0 0 1 0 0h47.93a60.05 60.05 0 0 1-21.76 44.6h11.52V48H10.25v-3.4Z"></path>
                            <path fill="currentColor" d="M60.39 45.8h-.53c-.06 0-.11-.05-.11-.1v-5.64l-1.17.75c-.05.05-.1.05-.16-.05l-.26-.43c-.06-.05-.06-.1.05-.16l1.6-1.06c.05 0 .1-.06.15-.06h.48c.05 0 .1.06.1.11v6.49c-.05.16-.1.16-.15.16ZM63.04 40.86c0 .37.1.64.37.85.27.22.59.32 1.01.32.43 0 .8-.1 1.01-.32.27-.21.37-.48.37-.85 0-.32-.1-.58-.37-.8-.26-.2-.58-.26-1-.26-.43 0-.8.1-1.02.26-.26.16-.37.43-.37.8Zm-.21 3.03c0 .38.16.7.42.96.27.27.64.37 1.12.37.48 0 .85-.1 1.12-.37.26-.27.42-.53.42-.96 0-.37-.16-.64-.42-.85a1.74 1.74 0 0 0-1.12-.32c-.48 0-.85.1-1.12.32-.26.21-.42.48-.42.85Zm3.93 0c0 .64-.21 1.12-.64 1.5-.42.36-1 .52-1.7.52a2.5 2.5 0 0 1-1.7-.53 1.86 1.86 0 0 1-.63-1.49c0-.37.1-.69.26-.95.21-.32.48-.54.8-.64-.59-.27-.9-.75-.9-1.5 0-.52.2-.9.58-1.27.42-.32.9-.53 1.54-.53s1.17.16 1.54.53c.43.32.58.75.58 1.28 0 .69-.31 1.22-.9 1.49.37.1.64.32.8.64.26.26.37.58.37.95ZM68.94 40.86c0 .37.1.64.37.85.27.22.58.32 1 .32.43 0 .8-.1 1.02-.32.26-.21.37-.48.37-.85 0-.32-.1-.58-.37-.8-.27-.2-.59-.26-1.01-.26-.43 0-.8.1-1.01.26a.96.96 0 0 0-.37.8Zm-.16 3.03c0 .38.16.7.42.96.27.27.64.37 1.12.37.48 0 .85-.1 1.11-.37.27-.27.43-.53.43-.96 0-.37-.16-.63-.43-.85a1.74 1.74 0 0 0-1.11-.32c-.48 0-.85.11-1.12.32-.26.22-.42.48-.42.85Zm3.93 0c0 .64-.21 1.12-.64 1.5-.42.36-1 .52-1.7.52a2.5 2.5 0 0 1-1.7-.53 1.86 1.86 0 0 1-.63-1.49c0-.37.1-.69.26-.95.21-.32.48-.54.8-.64-.59-.27-.9-.75-.9-1.5 0-.52.2-.9.58-1.27.42-.32.9-.53 1.54-.53s1.17.16 1.54.53c.42.32.58.75.58 1.28 0 .69-.32 1.22-.9 1.49.37.1.64.32.8.64.26.26.37.58.37.95ZM78.23 43.73c0 .64-.21 1.17-.63 1.6a2.4 2.4 0 0 1-1.65.58c-.48 0-.9-.05-1.22-.2a2.92 2.92 0 0 1-.96-.7c-.05-.05-.05-.1 0-.16l.32-.37c.05-.05.1-.05.16 0 .26.21.53.42.8.53.26.1.58.16.95.16.43 0 .8-.1 1.06-.37.27-.27.43-.59.43-1.07 0-.42-.16-.8-.43-1a1.8 1.8 0 0 0-1.16-.38c-.16 0-.38 0-.59.05-.05 0-.1 0-.1-.05l-.11-.27c-.05-.05 0-.1 0-.15l1.22-1.28c.37-.37.59-.64.74-.8H74.2c-.06 0-.11-.05-.11-.1v-.48c0-.06.05-.11.1-.11h3.83c.05 0 .1.05.1.1v.38c0 .05 0 .1-.05.1l-1.9 2.08h.04c.59 0 1.07.16 1.5.53.36.32.52.8.52 1.38ZM69.36 21.63v-7.64c0-.34.17-.5.51-.5h3.64c.34 0 .51.16.51.5v19.76c0 .34-.17.51-.5.51h-3.65c-.34 0-.5-.17-.5-.5v-7.8h-6.53v7.8c0 .33-.17.5-.5.5h-3.65c-.34 0-.5-.17-.5-.5V13.98c0-.34.16-.5.5-.5h3.64c.34 0 .51.16.51.5v7.64h6.52ZM83 25.78v4.24h8.64c.33 0 .5.17.5.51v3.22c0 .34-.17.51-.5.51h-12.8c-.33 0-.5-.17-.5-.5V13.98c0-.34.17-.5.5-.5h12.29c.34 0 .5.16.5.5v3.23c0 .33-.16.5-.5.5H83v3.99h7.2c.33 0 .5.17.5.5v3.15c0 .34-.17.5-.5.5H83v-.08ZM99.6 34.26h-3.56c-.34 0-.51-.17-.51-.5V13.98c0-.34.17-.5.5-.5h4.16c.25 0 .42.08.6.33l2.62 5.1c.67 1.35 1.52 3.21 2.62 5.76h.09c.76-1.87 1.6-3.73 2.62-5.77l2.63-5.09c.08-.25.34-.34.59-.34h4.15c.34 0 .5.17.5.51v19.76c0 .34-.16.51-.5.51h-3.64c-.34 0-.51-.17-.51-.5v-3.82c0-2.8.09-5.94.25-9.33h-.08a80.26 80.26 0 0 1-2.63 5.85l-1.44 2.88c-.08.26-.33.34-.59.34h-2.8c-.25 0-.5-.08-.59-.34l-1.44-2.88a80.22 80.22 0 0 1-2.62-5.85h-.09c.17 3.39.26 6.53.26 9.33v3.81c-.09.34-.26.51-.6.51ZM128.22 18.57c-.08.34-.42 1.44-.93 3.31-.6 1.95-1.02 3.4-1.27 4.33h4.66c-.09-.17-.85-2.72-2.29-7.72h-.17v.08Zm-5.16 15.7h-3.9c-.42 0-.5-.18-.42-.6l6.77-19.85a.64.64 0 0 1 .6-.42h4.4c.25 0 .42.17.59.42l6.78 19.85c.16.42 0 .6-.43.6h-3.9c-.33 0-.5-.18-.59-.43l-1.1-3.56h-7.11l-1.1 3.56c-.09.25-.26.42-.6.42ZM151.34 21.63v-7.64c0-.34.17-.5.51-.5h3.64c.34 0 .51.16.51.5v19.76c0 .34-.17.51-.5.51h-3.65c-.34 0-.5-.17-.5-.5v-7.8h-6.53v7.8c0 .33-.17.5-.5.5h-3.65c-.34 0-.5-.17-.5-.5V13.98c0-.34.16-.5.5-.5h3.64c.34 0 .51.16.51.5v7.64h6.52Z"></path>
                        </svg>
</svg>