<svg width="223" height="64" fill="none" xmlns="http://www.w3.org/2000/svg"><g clip-path="url(#clip0_2150:6784)"><path fill-rule="evenodd" clip-rule="evenodd" d="M31.974 6.628l-.033-.351-.04-.351-.061-.345-.084-.34-.1-.334-.113-.32-.123-.322-.145-.312-.155-.302-.174-.29-.185-.281-.195-.273-.213-.274-.229-.248-.235-.245-.246-.23-.257-.22-.275-.213-.278-.188-.286-.185-.297-.17-.308-.15-.318-.141-.33-.12-.329-.11L26.63.22l-.351-.078-.347-.06-.359-.043-.361-.028L24.845 0l-.373.01-.358.029-.358.043-.348.06-.35.078-.337.092-.33.11-.329.12-.318.143-.308.149-.296.17-.286.185-.279.188-.275.213-.257.22-.246.23-.235.245-.228.248-.213.274-.196.273-.184.28-.174.291-.156.302-.145.312-.119.323-.116.32-.09.333-.083.34-.062.345-.04.35-.032.352-.011.362.01.362.033.351.04.352.062.344.083.34.09.334.116.323.12.32.144.311.156.302.174.29.184.285.195.27.214.273.228.252.235.24.246.232.257.22.275.212.279.192.286.181.296.17.308.153.318.138.33.12.329.11.337.104.35.078.348.06.358.043.358.028.373.01.366-.01.361-.028.359-.043.347-.06.351-.078.336-.103.33-.11.33-.12.317-.14.308-.152.297-.17.286-.181.278-.192.275-.213.257-.22.246-.23.236-.241.227-.252.214-.273.195-.27.185-.284.174-.291.155-.302.145-.312.123-.32.112-.322.101-.334.084-.34.061-.344.04-.352.033-.351.007-.362-.007-.362zm-1.839 10.329l-.626.302-.644.262-.659.22-.665.181-.666.142-.677.1-.677.06-.687.021-.68-.021-.677-.06-.677-.1-.676-.142-.655-.18-.659-.22-.644-.263-.626-.302-.061.043v27.95l.04.06h10.616l.062-.06V17l-.062-.043z" fill="#F7974A"/><path fill-rule="evenodd" clip-rule="evenodd" d="M21.346 49.779h-.036l.014-.032-.503-.192-.503-.21-.481-.24-.481-.252-.47-.28-.453-.306-.453-.32-.44-.344-.431-.361-.42-.39-.41-.405-.4-.422-.38-.44-.37-.465-.358-.472-.351-.493-.337-.504-.318-.522-.308-.543-.286-.553-.278-.565-.268-.581-.246-.593-.235-.614-.214-.624-.195-.635-.185-.643-.166-.663-.152-.664-.123-.674-.123-.685-.094-.695-.08-.774-.054-.773-.04-.774-.01-.773.032-1.189.083-1.178.13-1.164.185-1.15.246-1.124.29-1.107.336-1.075.38-1.047.441-1.008.474-.972.521-.947.29-.455.286-.44.296-.432.319-.423.318-.404.337-.39.34-.384.358-.372.358-.352.38-.34-.025-.025.026-.025-.442-.415-.409-.433-.39-.45-.359-.473-.34-.482-.308-.504-.275-.514-.246-.522-.224-.532-.195-.547-.167-.55-.141-.564-.105-.575-.083-.582-.04-.581-.018-.586.007-.433.033-.422.09-.866-.029-.007V5.26l-.021-.04-.778.526-.75.553-.738.593-.72.614-.687.642-.677.663-.655.696-.626.724-.604.745-.586.773-.565.795-.543.813-.514.837-.503.866-.46.873-.451.894-.42.915-.402.926-.369.955-.347.958-.319.983-.296.986-.268 1.008-.246 1.015-.214 1.025-.184 1.036-.156 1.058-.134 1.057-.101 1.054-.072 1.075-.051 1.079L0 33.03l.022 1.288.061 1.298.112 1.296.152 1.309.185 1.245.228 1.228.257 1.217.297 1.189.336 1.164.37 1.146.4 1.128.442 1.096.47 1.065.504 1.047.532 1.014.575.997.586.955.626.937.644.894.677.866.698.834.728.794.76.767.77.724.8.684.821.653.84.603.861.572.883.525.905.482.911.444.945.39.952.355.966.298.984.263.995.202.011-.04v-.01h.04V49.778zM49.473 36.49l.008-.028-10.418-3.442 10.233-5.17-.01-.017.042-.011-.133-.905-.156-.898-.163-.894-.195-.876-.214-.862-.239-.866-.246-.845-.264-.848-.3-.823-.297-.813-.326-.805-.35-.795-.359-.773-.369-.767-.401-.745-.41-.734-.43-.713-.441-.703-.46-.685-.485-.674-.492-.653-.503-.635-.521-.625-.543-.592-.557-.582-.561-.554-.586-.542-.586-.526-.615-.5-.616-.472-.633-.465-.648-.433-.021.04-.04.01.061.433.04.433.022.433.01.433-.021.582-.04.585-.083.582-.101.575-.134.56-.174.558-.184.539-.228.536-.257.521-.275.515-.308.5-.33.486-.368.461-.38.451-.41.433-.44.415.025.025-.026.025.37.34.369.352.347.372.34.383.34.394.315.401.319.423.296.432.29.444.286.45.267.462.257.475.246.483.235.493.431 1.015.39 1.047.337 1.075.29 1.096.246 1.129.184 1.146.134 1.167.08 1.174.033 1.19-.011.773-.03.784-.06.773-.084.777-.094.692-.123.685-.123.674-.152.664-.166.663-.185.643-.196.635-.213.624-.235.614-.246.593-.268.581-.279.565-.285.553-.308.543-.319.525-.336.5-.351.494-.358.472-.37.465-.38.44-.397.422-.413.404-.42.39-.43.362-.442.345-.452.319-.449.305-.474.28-.481.252-.481.242-.503.209-.503.192.014.032h-.036V63.95h.044l.007.04 1.05-.21 1.023-.273 1.006-.323.995-.37.974-.425.955-.472.934-.521.911-.565.89-.614.873-.652.843-.696.821-.745.8-.774.767-.812.742-.855.705-.898.688-.922.655-.97.615-.993.597-1.025.554-1.057.532-1.086.492-1.118.452-1.135.42-1.168.38-1.196.35-1.217.308-1.248.254-1.257.228-1.288.184-1.295.134-1.32h-.04z" fill="#1E5E20"/><path d="M62.094 42.327V22.39H72.72v3.701h-6.74v3.822h.842c1.422-.04 2.841.147 4.201.557a5.412 5.412 0 012.718 2.093 6.15 6.15 0 011.085 3.64c0 1.392-.271 2.501-.814 3.33a6.14 6.14 0 01-2.247 2.018c-.965.52-2.284.78-3.959.78h-5.713v-.003zM65.98 33.3v5.408h.966c1.769 0 2.888-.226 3.358-.678a2.44 2.44 0 00.548-.843c.121-.315.175-.651.158-.988 0-1.932-1.41-2.899-4.23-2.899h-.8zm12.24-10.907h11.1v3.712h-7.255v3.605h7.255v3.647h-7.255v5.245h7.255v3.725h-11.1V22.393zm27.867 19.934L100.46 27.67l-5.724 14.658h-4.107l7.849-19.934h3.922l7.82 19.934h-4.133zM145.95 21.89a10.266 10.266 0 014.035.773 10.094 10.094 0 013.386 2.288 10.16 10.16 0 012.334 3.413c.534 1.28.796 2.655.771 4.039a9.898 9.898 0 01-.755 4.003 10.063 10.063 0 01-2.31 3.384 10.628 10.628 0 01-3.461 2.248 10.793 10.793 0 01-8.142-.044 10.62 10.62 0 01-3.435-2.285 10.455 10.455 0 01-2.521-4.042 10.306 10.306 0 01-.451-4.717 10.37 10.37 0 011.71-4.431 10.621 10.621 0 013.523-3.242 10.587 10.587 0 015.319-1.42l-.003.032zm-.036 3.679a6.492 6.492 0 00-2.578.473 6.388 6.388 0 00-2.166 1.45 6.69 6.69 0 00-1.471 2.254 6.582 6.582 0 00-.454 2.639c0 2.205.807 3.948 2.42 5.23a6.718 6.718 0 004.285 1.54 6.415 6.415 0 002.563-.487 6.307 6.307 0 002.141-1.465 6.96 6.96 0 001.944-4.815 6.96 6.96 0 00-1.944-4.815 6.368 6.368 0 00-2.159-1.478 6.475 6.475 0 00-2.585-.494m27.363 16.726l-5.631-14.658-5.724 14.658h-4.104l7.845-19.934h3.927l7.819 19.934h-4.132zM189.35 21.89a10.274 10.274 0 014.036.773 10.104 10.104 0 013.386 2.288 10.19 10.19 0 012.334 3.413c.534 1.28.796 2.655.77 4.039a9.898 9.898 0 01-.755 4.003 10.074 10.074 0 01-2.309 3.384 10.639 10.639 0 01-3.461 2.248 10.801 10.801 0 01-8.143-.044 10.62 10.62 0 01-3.435-2.285 10.467 10.467 0 01-2.521-4.042 10.306 10.306 0 01-.451-4.717 10.37 10.37 0 011.71-4.431 10.621 10.621 0 013.523-3.242 10.591 10.591 0 015.32-1.42l-.004.032zm-.036 3.679a6.498 6.498 0 00-2.578.473 6.398 6.398 0 00-2.166 1.45 6.69 6.69 0 00-1.471 2.254 6.582 6.582 0 00-.454 2.639c0 2.205.807 3.948 2.421 5.23a6.716 6.716 0 004.306 1.54 6.415 6.415 0 002.563-.487 6.307 6.307 0 002.141-1.465 6.96 6.96 0 001.945-4.815 6.96 6.96 0 00-1.945-4.815 6.368 6.368 0 00-2.159-1.478 6.475 6.475 0 00-2.585-.494m-61.012 9.463a6.553 6.553 0 01-1.447 2.13 6.313 6.313 0 01-2.142 1.463 6.41 6.41 0 01-2.562.488 6.717 6.717 0 01-4.317-1.505c-1.614-1.282-2.421-3.025-2.421-5.23a6.58 6.58 0 01.46-2.634 6.685 6.685 0 011.472-2.248 6.666 6.666 0 012.181-1.431 6.772 6.772 0 015.145.025 6.671 6.671 0 012.166 1.452 6.663 6.663 0 011.447 2.129h4.06a10.085 10.085 0 00-2.775-4.744 10.116 10.116 0 00-3.386-2.288 10.272 10.272 0 00-4.036-.774 10.807 10.807 0 00-5.309 1.397 10.54 10.54 0 00-3.889 3.808 10.472 10.472 0 00-1.33 6.58 10.563 10.563 0 002.947 6.052 10.61 10.61 0 004.76 2.754c1.808.487 3.716.494 5.527.02a10.611 10.611 0 004.781-2.721 10.303 10.303 0 002.724-4.716h-4.056v-.007zm94.527 7.246v-3.55h-2.265l-6.539-16.372h-3.912l-6.513 16.372h-2.251v3.548h21.48zm-10.726-14.63l4.44 11.085h-8.894l4.454-11.085zM67.616 53.614c0 2.3-1.372 3.52-3.044 3.52-1.73 0-2.945-1.37-2.945-3.392 0-2.13 1.292-3.51 3.043-3.51 1.751 0 2.946 1.399 2.946 3.382zm-5.084.11c0 1.42.76 2.708 2.091 2.708 1.332 0 2.099-1.26 2.099-2.775 0-1.327-.68-2.718-2.092-2.718-1.41 0-2.098 1.316-2.098 2.796v-.01zm7.428-2.647h-1.993v-.734h4.852v.734h-2.004v5.947h-.854v-5.947zm4.422-.734v2.963h.264l2.247-2.963h1.028l-2.479 3.062c1.086.149 1.498.823 1.838 1.724.205.645.447 1.277.724 1.895h-.915a11.972 11.972 0 01-.594-1.575c-.3-.884-.724-1.487-1.827-1.487h-.272v3.062h-.835v-6.681h.835-.014zm4.436.077a9.63 9.63 0 011.625-.127 2.659 2.659 0 011.838.554 1.824 1.824 0 01.576 1.398 1.988 1.988 0 01-.507 1.419 2.663 2.663 0 01-.923.574 2.703 2.703 0 01-1.082.16 2.836 2.836 0 01-.68-.06v2.675h-.847v-6.592zm.847 3.223c.229.053.463.076.698.07 1.02 0 1.643-.503 1.643-1.419 0-.915-.611-1.309-1.545-1.309a3.465 3.465 0 00-.796.071v2.597-.01zm5.172-3.3v2.484c.258-.032.518-.049.778-.05 1.35 0 2.533.603 2.533 2.09a2.033 2.033 0 01-.506 1.42c-.536.574-1.448.783-2.334.783a9.742 9.742 0 01-1.314-.078v-6.65h.847-.004zm0 6.032a3.3 3.3 0 00.68.05c.934 0 1.741-.487 1.741-1.498 0-1.011-.876-1.437-1.751-1.437a4.12 4.12 0 00-.67.05v2.838-.003zm4.892-6.032v6.681h-.853v-6.681h.853zm2.761.734h-1.994v-.734h4.853v.734h-2.005v5.947h-.854v-5.947zm9.188 2.537c0 2.3-1.371 3.52-3.043 3.52-1.73 0-2.946-1.37-2.946-3.392 0-2.13 1.292-3.51 3.044-3.51 1.751 0 2.945 1.399 2.945 3.382zm-5.084.12c0 1.42.76 2.708 2.092 2.708 1.331 0 2.098-1.26 2.098-2.775 0-1.327-.68-2.718-2.091-2.718s-2.099 1.306-2.099 2.786zm9.578.157h-2.533v2.41h2.84v.709h-3.702v-6.667h3.539v.71h-2.703v2.128h2.533v.71h.026zm4.513 1.033l-.68 2.1h-.876l2.225-6.681h1.021l2.236 6.681h-.905l-.684-2.1h-2.337zm2.149-.675l-.644-1.933c-.145-.437-.242-.834-.34-1.221h-.018a21.65 21.65 0 01-.329 1.21l-.652 1.944h1.983zm3.578-3.906v2.963h.261l2.247-2.963h1.02l-2.478 3.062c1.085.149 1.498.823 1.838 1.724.205.645.446 1.277.724 1.895h-.916a11.872 11.872 0 01-.593-1.575c-.301-.884-.724-1.487-1.828-1.487h-.271v3.062h-.836v-6.681h.836-.004zm5.295 0V56.3h3.003v-5.957h.858v5.979l.572.02-.091 2.29h-.669l-.055-1.608h-4.479v-6.681h.861zm6.275 0v2.813a43.17 43.17 0 01-.076 2.84h.018c.329-.71.723-1.42 1.216-2.211l2.12-3.442h.847v6.681h-.796v-2.839c0-1.064 0-1.873.076-2.717h-.029a20.576 20.576 0 01-1.216 2.25l-2.052 3.32h-.904v-6.695h.796zm11.202 3.271c0 2.3-1.371 3.52-3.043 3.52-1.73 0-2.946-1.37-2.946-3.392 0-2.13 1.292-3.51 3.044-3.51 1.751 0 2.945 1.399 2.945 3.382zm-5.084.11c0 1.42.76 2.708 2.091 2.708 1.332 0 2.099-1.26 2.099-2.775 0-1.327-.68-2.718-2.091-2.718-1.412 0-2.099 1.316-2.099 2.796v-.01zm7.026-3.381v2.796h3.17v-2.796h.857v6.681h-.857v-3.133h-3.17v3.133h-.847v-6.681h.847zm8.888 3.548h-2.533v2.41h2.811v.709h-3.669v-6.667h3.539v.71h-2.692v2.128h2.533v.71h.011zm1.394-3.471a9.629 9.629 0 011.625-.127 2.658 2.658 0 011.838.554 1.821 1.821 0 01.572 1.398 1.989 1.989 0 01-.507 1.419 2.702 2.702 0 01-2.005.735 2.833 2.833 0 01-.68-.06v2.675h-.847V50.42h.004zm.847 3.223c.228.053.463.076.698.07 1.02 0 1.643-.503 1.643-1.419 0-.915-.612-1.309-1.545-1.309a3.457 3.457 0 00-.796.071v2.597-.01zm5.17-3.3v2.796h3.17v-2.796h.857v6.681h-.857v-3.133h-3.17v3.133h-.847v-6.681h.847zm11.095 3.271c0 2.3-1.371 3.52-3.043 3.52-1.73 0-2.946-1.37-2.946-3.392 0-2.13 1.292-3.51 3.043-3.51 1.752 0 2.946 1.399 2.946 3.382zm-5.084.11c0 1.42.76 2.708 2.091 2.708 1.332 0 2.099-1.26 2.099-2.775 0-1.327-.68-2.718-2.091-2.718-1.412 0-2.099 1.316-2.099 2.796v-.01zm9.577.167h-2.533v2.41h2.841v.709h-3.702v-6.667h3.539v.71h-2.692v2.128h2.533v.71h.014zm9.05-.277c0 2.3-1.372 3.52-3.043 3.52-1.73 0-2.946-1.37-2.946-3.392 0-2.13 1.292-3.51 3.043-3.51 1.752 0 2.946 1.399 2.946 3.382zm-5.084.11c0 1.42.76 2.708 2.091 2.708 1.332 0 2.099-1.26 2.099-2.775 0-1.327-.68-2.718-2.091-2.718-1.412 0-2.099 1.316-2.099 2.796v-.01zm9.862-3.381v.71h-2.83v1.795c.268-.032.537-.048.807-.05a3.074 3.074 0 011.694.447c.271.18.49.424.637.71.146.287.215.606.198.926a2.003 2.003 0 01-.542 1.448c-.536.535-1.419.745-2.316.745a9.767 9.767 0 01-1.321-.078v-6.653h3.673zm-2.83 6.032c.239.04.481.057.724.05a1.89 1.89 0 001.382-.515c.244-.27.373-.622.362-.983a1.267 1.267 0 00-.536-1.09 2.157 2.157 0 00-1.244-.354 9.03 9.03 0 00-.67.039v2.839l-.018.014zm5.301-6.032V56.3h2.128v-5.957h.829V56.3h2.12v-5.957h.847v5.979l.571.02-.057 2.29h-.67l-.047-1.608h-6.56v-6.681h.839zm10.957 3.548h-2.533v2.41h2.841v.709h-3.702v-6.667h3.539v.71h-2.692v2.128h2.533v.71h.014zm5.971 2.917a4.138 4.138 0 01-1.73.316c-1.849 0-3.239-1.19-3.239-3.382 0-2.09 1.39-3.51 3.424-3.51a3.462 3.462 0 011.556.299l-.203.71a3.032 3.032 0 00-1.321-.277c-1.538 0-2.558 1-2.558 2.757 0 1.635.923 2.686 2.533 2.686.476.007.947-.087 1.382-.277l.156.678zm2.31-5.731h-1.993v-.734h4.852v.734h-2.005v5.947h-.854v-5.947zm3.581-.645a8.039 8.039 0 011.545-.139c.847 0 1.389.15 1.809.486a1.415 1.415 0 01.543 1.182 1.56 1.56 0 01-.316.905 1.61 1.61 0 01-.791.56v.022c.386.086.73.3.975.604.246.304.378.682.374 1.07a1.805 1.805 0 01-.553 1.338c-.456.426-1.194.625-2.265.625a9.745 9.745 0 01-1.314-.078v-6.575h-.007zm.847 2.735h.767c.893 0 1.418-.475 1.418-1.121 0-.784-.582-1.09-1.447-1.09a3.552 3.552 0 00-.749.061v2.15h.011zm0 3.194c.239.033.481.046.723.039.876 0 1.683-.327 1.683-1.299 0-.912-.767-1.288-1.694-1.288h-.698v2.548h-.014zm10.026-2.747c0 2.3-1.371 3.52-3.043 3.52-1.73 0-2.945-1.37-2.945-3.392 0-2.13 1.291-3.51 3.043-3.51 1.751 0 2.945 1.399 2.945 3.382zm-5.084.11c0 1.42.76 2.708 2.092 2.708 1.331 0 2.099-1.26 2.099-2.775 0-1.327-.681-2.718-2.092-2.718s-2.102 1.316-2.102 2.796l.003-.01z" fill="#1E5E20"/></g><defs><clipPath id="clip0_2150:6784"><path fill="#fff" d="M0 0h223v64H0z"/></clipPath></defs></svg>